<svg width="25" height="24" viewBox="0 0 25 24" fill="none" xmlns="http://www.w3.org/2000/svg">
<path d="M11.8746 2L12.3452 2.47059C13.0511 3.17647 13.4386 4.11303 13.4386 5.10496C13.4386 6.09689 13.0557 7.02883 12.3591 7.7301L8.78351 11.3057C8.59896 11.4902 8.49746 11.7347 8.49746 11.9977C8.49746 12.2607 8.59896 12.5098 8.78351 12.6943L13.4617 17.3725C14.3245 18.1984 15.6901 18.1845 16.5344 17.3403L14.043 19.8316L11.87 22L5.67393 15.8039C4.57128 14.7013 4.01765 13.2295 4.10992 11.6701C4.18835 10.3599 4.77428 9.10496 5.75237 8.12226L11.8746 2Z" fill="#9295A4"/>
<path d="M15.4271 5.55704L18.0753 8.20526C19.0903 9.22025 19.6486 10.5674 19.6486 12.0069C19.6486 13.4417 19.0903 14.7889 18.0753 15.8039L16.5344 17.3448C15.6901 18.1891 14.3199 18.2029 13.4617 17.3771L11.8747 15.79L14.9704 12.6943C15.1549 12.5098 15.2564 12.2606 15.2564 12.0023C15.2564 11.7393 15.1549 11.4901 14.9704 11.3056C14.2553 10.5905 13.8677 9.65393 13.8677 8.65739C13.8677 7.66085 14.2553 6.72429 14.9612 6.02302L15.4317 5.55243L15.4271 5.55704Z" fill="#D0D5DD"/>
<path d="M11.8724 9.79248L13.6895 11.6096C13.9048 11.8249 13.9048 12.1772 13.6895 12.3925L11.8724 14.2097L10.0553 12.3925C9.83998 12.1772 9.83998 11.8249 10.0553 11.6096L11.8724 9.79248Z" fill="#9295A4"/>
</svg>
