<svg width="393" height="476" viewBox="0 0 393 476" fill="none" xmlns="http://www.w3.org/2000/svg">
<g filter="url(#filter0_f_2016_2186)">
<circle cx="190.631" cy="238" r="87.3589" fill="#C7DFFB"/>
</g>
<circle cx="190.631" cy="238" r="94" fill="#EBF5FF" stroke="white" stroke-width="12"/>
<mask id="mask0_2016_2186" style="mask-type:alpha" maskUnits="userSpaceOnUse" x="96" y="143" width="189" height="190">
<circle cx="190.631" cy="238" r="94.1309" fill="white"/>
</mask>
<g mask="url(#mask0_2016_2186)">
<path fill-rule="evenodd" clip-rule="evenodd" d="M179.395 202.896V197.994C179.395 192.038 184.223 187.21 190.179 187.21C196.135 187.21 200.963 192.038 200.963 197.994V202.896H206.257C212.213 202.896 217.041 207.724 217.041 213.68C217.041 219.636 212.213 224.464 206.257 224.464H174.101C168.145 224.464 163.317 219.636 163.317 213.68C163.317 207.724 168.145 202.896 174.101 202.896H179.395Z" fill="white"/>
<path fill-rule="evenodd" clip-rule="evenodd" d="M179.395 202.896V197.994C179.395 192.038 184.223 187.21 190.179 187.21C196.135 187.21 200.963 192.038 200.963 197.994V202.896H206.257C212.213 202.896 217.041 207.724 217.041 213.68C217.041 219.636 212.213 224.464 206.257 224.464H174.101C168.145 224.464 163.317 219.636 163.317 213.68C163.317 207.724 168.145 202.896 174.101 202.896H179.395Z" fill="url(#paint0_linear_2016_2186)" fill-opacity="0.7"/>
<path fill-rule="evenodd" clip-rule="evenodd" d="M159.603 213.395H140.428C129.382 213.395 120.428 222.349 120.428 233.395V332.447C120.428 343.493 129.382 352.447 140.428 352.447H241.285C252.331 352.447 261.285 343.493 261.285 332.447V233.395C261.285 222.349 252.331 213.395 241.285 213.395H220.756C220.984 214.336 221.105 215.319 221.105 216.33C221.105 223.186 215.546 228.745 208.689 228.745H171.669C164.812 228.745 159.254 223.186 159.254 216.33C159.254 215.319 159.375 214.336 159.603 213.395Z" fill="white"/>
<path fill-rule="evenodd" clip-rule="evenodd" d="M159.603 213.395H140.428C129.382 213.395 120.428 222.349 120.428 233.395V332.447C120.428 343.493 129.382 352.447 140.428 352.447H241.285C252.331 352.447 261.285 343.493 261.285 332.447V233.395C261.285 222.349 252.331 213.395 241.285 213.395H220.756C220.984 214.336 221.105 215.319 221.105 216.33C221.105 223.186 215.546 228.745 208.689 228.745H171.669C164.812 228.745 159.254 223.186 159.254 216.33C159.254 215.319 159.375 214.336 159.603 213.395Z" fill="url(#paint1_linear_2016_2186)" fill-opacity="0.7"/>
<rect x="146.161" y="242.289" width="88.4876" height="19.4131" rx="9.70655" fill="white"/>
<rect x="154.288" y="278.858" width="66.8172" height="5.41761" rx="2.7088" fill="white"/>
<circle cx="148.87" cy="281.567" r="2.7088" fill="white"/>
<rect x="154.288" y="301.431" width="46.0497" height="5.41761" rx="2.7088" fill="white"/>
<circle cx="148.87" cy="304.14" r="2.7088" fill="white"/>
<circle cx="224.265" cy="173.214" r="7.67494" fill="white"/>
<circle cx="224.265" cy="173.214" r="7.67494" fill="url(#paint2_linear_2016_2186)" fill-opacity="0.5"/>
<path d="M143.227 184.953C145.845 184.953 147.967 187.075 147.967 189.693C147.967 192.311 145.845 194.433 143.227 194.433C140.609 194.433 138.486 192.311 138.486 189.693C138.486 187.075 140.609 184.953 143.227 184.953Z" fill="white"/>
<path d="M143.227 184.953C145.845 184.953 147.967 187.075 147.967 189.693C147.967 192.311 145.845 194.433 143.227 194.433C140.609 194.433 138.486 192.311 138.486 189.693C138.486 187.075 140.609 184.953 143.227 184.953Z" fill="url(#paint3_linear_2016_2186)" fill-opacity="0.5"/>
<circle cx="252.03" cy="202.786" r="4.74041" transform="rotate(-90 252.03 202.786)" fill="white"/>
<circle cx="252.03" cy="202.786" r="4.74041" transform="rotate(-90 252.03 202.786)" fill="url(#paint4_linear_2016_2186)" fill-opacity="0.5"/>
</g>
<g filter="url(#filter1_f_2016_2186)">
<circle cx="280.473" cy="186.984" r="21.8962" fill="#C7DFFB" fill-opacity="0.7"/>
</g>
<circle cx="275.507" cy="182.018" r="21.8962" fill="white"/>
<circle cx="275.507" cy="182.018" r="21.8962" fill="url(#paint5_linear_2016_2186)" fill-opacity="0.7"/>
<path d="M282.73 180.566H276.958V174.794C276.958 174.35 276.782 173.923 276.467 173.608C276.153 173.294 275.726 173.117 275.281 173.117C274.836 173.117 274.41 173.294 274.095 173.608C273.781 173.923 273.604 174.35 273.604 174.794V180.566H267.832C267.387 180.566 266.961 180.743 266.646 181.058C266.331 181.372 266.155 181.799 266.155 182.244C266.155 182.688 266.331 183.115 266.646 183.43C266.961 183.744 267.387 183.921 267.832 183.921H273.604V189.693C273.604 190.138 273.781 190.564 274.095 190.879C274.41 191.193 274.836 191.37 275.281 191.37C275.726 191.37 276.153 191.193 276.467 190.879C276.782 190.564 276.958 190.138 276.958 189.693V183.921H282.73C283.175 183.921 283.602 183.744 283.916 183.43C284.231 183.115 284.408 182.688 284.408 182.244C284.408 181.799 284.231 181.372 283.916 181.058C283.602 180.743 283.175 180.566 282.73 180.566Z" fill="white" stroke="white" stroke-width="2"/>
<defs>
<filter id="filter0_f_2016_2186" x="-46.7281" y="0.641083" width="474.718" height="474.718" filterUnits="userSpaceOnUse" color-interpolation-filters="sRGB">
<feFlood flood-opacity="0" result="BackgroundImageFix"/>
<feBlend mode="normal" in="SourceGraphic" in2="BackgroundImageFix" result="shape"/>
<feGaussianBlur stdDeviation="75" result="effect1_foregroundBlur_2016_2186"/>
</filter>
<filter id="filter1_f_2016_2186" x="218.577" y="125.088" width="123.792" height="123.792" filterUnits="userSpaceOnUse" color-interpolation-filters="sRGB">
<feFlood flood-opacity="0" result="BackgroundImageFix"/>
<feBlend mode="normal" in="SourceGraphic" in2="BackgroundImageFix" result="shape"/>
<feGaussianBlur stdDeviation="20" result="effect1_foregroundBlur_2016_2186"/>
</filter>
<linearGradient id="paint0_linear_2016_2186" x1="190" y1="189.5" x2="174.51" y2="214.341" gradientUnits="userSpaceOnUse">
<stop stop-color="#25387A"/>
<stop offset="1" stop-color="#0375F3"/>
</linearGradient>
<linearGradient id="paint1_linear_2016_2186" x1="191" y1="230" x2="160.554" y2="320.79" gradientUnits="userSpaceOnUse">
<stop stop-color="#0375F3"/>
<stop offset="1" stop-color="#25387A"/>
</linearGradient>
<linearGradient id="paint2_linear_2016_2186" x1="224.265" y1="165.539" x2="224.265" y2="180.889" gradientUnits="userSpaceOnUse">
<stop stop-color="#0375F3"/>
<stop offset="1" stop-color="#0375F3" stop-opacity="0"/>
</linearGradient>
<linearGradient id="paint3_linear_2016_2186" x1="138.486" y1="189.693" x2="147.967" y2="189.693" gradientUnits="userSpaceOnUse">
<stop stop-color="#0375F3"/>
<stop offset="1" stop-color="#0375F3" stop-opacity="0"/>
</linearGradient>
<linearGradient id="paint4_linear_2016_2186" x1="252.03" y1="198.045" x2="252.03" y2="207.526" gradientUnits="userSpaceOnUse">
<stop stop-color="#0375F3"/>
<stop offset="1" stop-color="#0375F3" stop-opacity="0"/>
</linearGradient>
<linearGradient id="paint5_linear_2016_2186" x1="267" y1="162" x2="283" y2="204" gradientUnits="userSpaceOnUse">
<stop stop-color="#1FC583" stop-opacity="0.5"/>
<stop offset="1" stop-color="#1F9285" stop-opacity="0.5"/>
</linearGradient>
</defs>
</svg>
