<svg width="16" height="16" viewBox="0 0 16 16" fill="none" xmlns="http://www.w3.org/2000/svg">
<path d="M8.58688 1.50375C8.44876 1.49171 8.30964 1.50851 8.17836 1.55311C8.04708 1.59771 7.92651 1.66911 7.8243 1.7628C7.72209 1.85648 7.64049 1.9704 7.58466 2.09731C7.52883 2.22422 7.5 2.36135 7.50001 2.5V5.04188C7.49828 5.27774 7.58071 5.50649 7.7325 5.68703C7.88429 5.86757 8.09548 5.98807 8.32813 6.02688C8.69986 6.08924 9.04639 6.25538 9.3278 6.50614C9.6092 6.75691 9.81402 7.08209 9.91863 7.4442C10.0232 7.80631 10.0234 8.19061 9.91909 8.55281C9.81478 8.91501 9.61024 9.24036 9.32904 9.49136C9.04785 9.74236 8.70145 9.90879 8.32978 9.97146C7.95811 10.0341 7.57628 9.99051 7.22833 9.84561C6.88037 9.7007 6.58045 9.46042 6.36313 9.15246C6.1458 8.8445 6.01993 8.48139 6.00001 8.105C5.97438 7.59125 6.07938 7.1675 6.31251 6.83875C6.44952 6.64763 6.51412 6.41402 6.49477 6.17966C6.47542 5.94529 6.37338 5.72544 6.20688 5.55938L4.48063 3.7925C4.38223 3.6941 4.26438 3.61732 4.13461 3.56707C4.00484 3.51682 3.86602 3.4942 3.72701 3.50067C3.588 3.50714 3.45187 3.54256 3.32734 3.60465C3.2028 3.66673 3.09259 3.75413 3.00376 3.86125C1.96187 5.10999 1.42804 6.70508 1.5084 8.3294C1.58877 9.95373 2.27744 11.4883 3.43751 12.6281C4.6505 13.8316 6.29132 14.5048 8.00001 14.5H8.09313C9.78346 14.4712 11.3965 13.7869 12.5919 12.5914C13.7872 11.3959 14.4714 9.78284 14.5 8.0925C14.5469 4.69875 11.9494 1.805 8.58688 1.50375ZM3.77001 4.49625L5.49563 6.25813V6.26188C5.23949 6.62946 5.07863 7.0549 5.02751 7.5H2.52251C2.62264 6.39505 3.05789 5.34704 3.77001 4.49625ZM2.52313 8.5H5.04188C5.14557 9.11434 5.43796 9.68116 5.87845 10.1218C6.31895 10.5624 6.88569 10.8549 7.50001 10.9587V13.4775C6.21941 13.3605 5.02029 12.7985 4.11105 11.8892C3.20182 10.9798 2.63996 9.78061 2.52313 8.5ZM11.8838 11.8837C10.9781 12.7957 9.78001 13.3594 8.50001 13.4756V10.9587C9.07943 10.8623 9.61728 10.5963 10.0456 10.1944C10.4551 9.81285 10.7497 9.32438 10.8962 8.78419C11.0426 8.24399 11.0349 7.6736 10.8742 7.13751C10.7134 6.60142 10.4058 6.121 9.98625 5.75055C9.5667 5.38011 9.05189 5.13442 8.50001 5.04125V2.5C11.345 2.755 13.5419 5.205 13.5 8.07813C13.4804 9.50937 12.9 10.8758 11.8838 11.8837Z" fill="#9295A4"/>
</svg>
