<svg width="25" height="24" viewBox="0 0 25 24" fill="none" xmlns="http://www.w3.org/2000/svg">
<g opacity="0.9">
<path opacity="0.9" d="M11.25 3C11.8023 3 12.25 3.44772 12.25 4V6C12.25 6.55228 11.8023 7 11.25 7H4.25C3.69772 7 3.25 6.55228 3.25 6V4C3.25 3.44772 3.69772 3 4.25 3H11.25ZM15.25 17C15.8023 17 16.25 17.4477 16.25 18V20C16.25 20.5523 15.8023 21 15.25 21H4.25C3.69772 21 3.25 20.5523 3.25 20V18C3.25 17.4477 3.69772 17 4.25 17H15.25Z" fill="#9295A4"/>
<path d="M22.25 13V11C22.25 10.4477 21.8023 10 21.25 10H4.25C3.69772 10 3.25 10.4477 3.25 11V13C3.25 13.5523 3.69771 14 4.25 14H21.25C21.8023 14 22.25 13.5523 22.25 13Z" fill="#9295A4"/>
</g>
</svg>
