<svg width="25" height="24" viewBox="0 0 25 24" fill="none" xmlns="http://www.w3.org/2000/svg">
<path d="M12.15 7.5C12.15 8.24168 11.9301 8.96671 11.518 9.58339C11.106 10.2001 10.5203 10.6807 9.83506 10.9646C9.14984 11.2484 8.39584 11.3226 7.66841 11.1779C6.94098 11.0333 6.27279 10.6761 5.74835 10.1517C5.2239 9.62721 4.86675 8.95902 4.72205 8.23159C4.57736 7.50416 4.65162 6.75016 4.93545 6.06494C5.21928 5.37972 5.69992 4.79405 6.31661 4.38199C6.93329 3.96994 7.65832 3.75 8.4 3.75C9.39456 3.75 10.3484 4.14509 11.0516 4.84835C11.7549 5.55161 12.15 6.50544 12.15 7.5ZM17.4 11.25C18.1417 11.25 18.8667 11.0301 19.4834 10.618C20.1001 10.206 20.5807 9.62029 20.8645 8.93506C21.1484 8.24984 21.2226 7.49584 21.0779 6.76841C20.9332 6.04098 20.5761 5.3728 20.0516 4.84835C19.5272 4.3239 18.859 3.96675 18.1316 3.82206C17.4042 3.67736 16.6502 3.75162 15.9649 4.03545C15.2797 4.31928 14.694 4.79993 14.282 5.41661C13.8699 6.0333 13.65 6.75832 13.65 7.5C13.65 8.49456 14.0451 9.44839 14.7483 10.1517C15.4516 10.8549 16.4054 11.25 17.4 11.25ZM8.4 12.75C7.65832 12.75 6.93329 12.9699 6.31661 13.382C5.69992 13.794 5.21928 14.3797 4.93545 15.0649C4.65162 15.7502 4.57736 16.5042 4.72205 17.2316C4.86675 17.959 5.2239 18.6272 5.74835 19.1517C6.27279 19.6761 6.94098 20.0333 7.66841 20.1779C8.39584 20.3226 9.14984 20.2484 9.83506 19.9646C10.5203 19.6807 11.106 19.2001 11.518 18.5834C11.9301 17.9667 12.15 17.2417 12.15 16.5C12.15 15.5054 11.7549 14.5516 11.0516 13.8484C10.3484 13.1451 9.39456 12.75 8.4 12.75Z" fill="#9295A4"/>
<path d="M18.15 15.75H20.4C20.5989 15.75 20.7897 15.829 20.9303 15.9697C21.071 16.1103 21.15 16.3011 21.15 16.5C21.15 16.6989 21.071 16.8897 20.9303 17.0303C20.7897 17.171 20.5989 17.25 20.4 17.25H18.15V19.5C18.15 19.6989 18.071 19.8897 17.9303 20.0303C17.7897 20.171 17.5989 20.25 17.4 20.25C17.2011 20.25 17.0103 20.171 16.8697 20.0303C16.729 19.8897 16.65 19.6989 16.65 19.5V17.25H14.4C14.2011 17.25 14.0103 17.171 13.8697 17.0303C13.729 16.8897 13.65 16.6989 13.65 16.5C13.65 16.3011 13.729 16.1103 13.8697 15.9697C14.0103 15.829 14.2011 15.75 14.4 15.75H16.65V13.5C16.65 13.3011 16.729 13.1103 16.8697 12.9697C17.0103 12.829 17.2011 12.75 17.4 12.75C17.5989 12.75 17.7897 12.829 17.9303 12.9697C18.071 13.1103 18.15 13.3011 18.15 13.5V15.75Z" fill="#9295A4"/>
</svg>
