<svg width="25" height="24" viewBox="0 0 25 24" fill="none" xmlns="http://www.w3.org/2000/svg">
<g opacity="0.9">
<path opacity="0.9" d="M7.05 20V8.975C7.05 8.425 7.25 7.95833 7.65 7.575C8.05 7.19167 8.525 7 9.075 7H20.05C20.6 7 21.071 7.19567 21.463 7.587C21.855 7.97833 22.0507 8.44933 22.05 9V16.175C22.05 16.4417 22 16.696 21.9 16.938C21.8 17.18 21.6583 17.3923 21.475 17.575L17.625 21.425C17.4417 21.6083 17.229 21.75 16.987 21.85C16.745 21.95 16.491 22 16.225 22H9.05C8.5 22 8.02933 21.8043 7.638 21.413C7.24666 21.0217 7.05066 20.5507 7.05 20ZM20.05 16H17.05C16.7667 16 16.5293 16.096 16.338 16.288C16.1467 16.48 16.0507 16.7173 16.05 17V20L20.05 16Z" fill="#9295A4"/>
<path d="M2.07525 6.25001C1.97525 5.70001 2.08359 5.20435 2.40025 4.76301C2.71692 4.32168 3.15025 4.05068 3.70025 3.95001L14.5503 2.02501C15.1003 1.92501 15.5963 2.03335 16.0383 2.35001C16.4803 2.66668 16.7509 3.10001 16.8503 3.65001L17.1003 5.00001H9.05025C7.95025 5.00001 7.00859 5.39168 6.22525 6.17501C5.44192 6.95835 5.05025 7.90001 5.05025 9.00001V18.55C4.78359 18.4 4.55459 18.2 4.36325 17.95C4.17192 17.7 4.05092 17.4167 4.00025 17.1L2.07525 6.25001Z" fill="#9295A4"/>
</g>
</svg>
