<svg width="24" height="24" viewBox="0 0 24 24" fill="none" xmlns="http://www.w3.org/2000/svg">
<path d="M21 16.5C21 16.6989 20.921 16.8897 20.7803 17.0303C20.6397 17.171 20.4489 17.25 20.25 17.25H12.75V22.5C12.75 22.6989 12.671 22.8897 12.5303 23.0303C12.3897 23.171 12.1989 23.25 12 23.25C11.8011 23.25 11.6103 23.171 11.4697 23.0303C11.329 22.8897 11.25 22.6989 11.25 22.5V17.25H3.75C3.55109 17.25 3.36032 17.171 3.21967 17.0303C3.07902 16.8897 3 16.6989 3 16.5C3 16.3011 3.07902 16.1103 3.21967 15.9697C3.36032 15.829 3.55109 15.75 3.75 15.75H4.62094L6.60562 4.5H6C5.80109 4.5 5.61032 4.42098 5.46967 4.28033C5.32902 4.13968 5.25 3.94891 5.25 3.75C5.25 3.55109 5.32902 3.36032 5.46967 3.21967C5.61032 3.07902 5.80109 3 6 3H18C18.1989 3 18.3897 3.07902 18.5303 3.21967C18.671 3.36032 18.75 3.55109 18.75 3.75C18.75 3.94891 18.671 4.13968 18.5303 4.28033C18.3897 4.42098 18.1989 4.5 18 4.5H17.3944L19.3791 15.75H20.25C20.4489 15.75 20.6397 15.829 20.7803 15.9697C20.921 16.1103 21 16.3011 21 16.5Z" fill="white"/>
</svg>
