<svg width="17" height="17" viewBox="0 0 17 17" fill="none" xmlns="http://www.w3.org/2000/svg">
<path d="M16.3852 7.12501L12.2078 11.3164C12.5641 12.3063 12.7117 13.9641 11.1774 16.0039C11.0701 16.1473 10.933 16.2659 10.7757 16.3515C10.6183 16.4372 10.4444 16.4878 10.2657 16.5C10.236 16.5 10.2071 16.5 10.1774 16.5C10.0131 16.5 9.85046 16.4677 9.69872 16.4048C9.54697 16.3419 9.4091 16.2498 9.293 16.1336L5.52268 12.3594L2.19221 15.6922C2.07494 15.8095 1.91588 15.8754 1.75003 15.8754C1.58417 15.8754 1.42511 15.8095 1.30784 15.6922C1.19056 15.5749 1.12468 15.4159 1.12468 15.25C1.12468 15.0842 1.19056 14.9251 1.30784 14.8078L4.64065 11.4774L0.867214 7.70391C0.743182 7.57973 0.646693 7.43081 0.58403 7.26686C0.521366 7.10291 0.493931 6.9276 0.503512 6.75235C0.513093 6.57709 0.559474 6.40582 0.639637 6.24968C0.719799 6.09354 0.831946 5.95603 0.968776 5.8461C2.95471 4.24376 4.85549 4.5586 5.68753 4.81954L9.87503 0.617194C9.9911 0.501091 10.1289 0.408991 10.2806 0.346154C10.4323 0.283318 10.5948 0.250977 10.759 0.250977C10.9232 0.250977 11.0858 0.283318 11.2374 0.346154C11.3891 0.408991 11.5269 0.501091 11.643 0.617194L16.3844 5.35782C16.6187 5.59211 16.7505 5.90987 16.7506 6.24125C16.7508 6.57263 16.6193 6.89051 16.3852 7.12501Z" fill="#EE1E1E"/>
</svg>
