<svg width="28" height="8" viewBox="0 0 28 8" fill="none" xmlns="http://www.w3.org/2000/svg">
<path d="M12.5858 1.55234L9.74904 4.3296C8.36542 5.68419 7.67361 6.36149 6.86628 6.84585C6.1505 7.27528 5.37015 7.59173 4.55386 7.7836C3.63316 8 2.65479 8 0.698068 8H27.3019C25.3452 8 24.3668 8 23.4461 7.7836C22.6299 7.59173 21.8495 7.27528 21.1337 6.84585C20.3264 6.36149 19.6346 5.68419 18.251 4.3296L15.4142 1.55234C14.6332 0.787672 13.3668 0.787673 12.5858 1.55234Z" fill="white"/>
<path d="M27.3019 7.02097C25.2976 7.02097 24.4584 7.01468 23.6796 6.83162C22.9653 6.66374 22.2825 6.38684 21.6562 6.01109C20.9733 5.60136 20.3753 5.02486 18.9581 3.63732L16.1213 0.860061C14.9497 -0.286939 13.0503 -0.286935 11.8787 0.860063L9.04193 3.63732C7.62466 5.02487 7.02672 5.60136 6.34378 6.01109C5.71748 6.38684 5.03466 6.66374 4.32041 6.83162C3.54157 7.01468 2.70239 7.02097 0.698068 7.02097H0V8H0.698068C2.65479 8 3.63315 8 4.55386 7.7836C5.37015 7.59173 6.1505 7.27528 6.86628 6.84585C7.67361 6.36149 8.36542 5.68419 9.74904 4.3296L12.5858 1.55234C13.3668 0.787673 14.6332 0.787672 15.4142 1.55234L18.251 4.3296C19.6346 5.68419 20.3264 6.36149 21.1337 6.84585C21.8495 7.27528 22.6299 7.59173 23.4461 7.7836C24.3668 8 25.3452 8 27.3019 8H28V7.02097H27.3019Z" fill="#CCCCCC"/>
</svg>
