<svg width="12" height="12" viewBox="0 0 12 12" fill="none" xmlns="http://www.w3.org/2000/svg">
<path d="M10.0964 7.64344C10.068 7.71196 10.02 7.77054 9.95832 7.81176C9.89666 7.85297 9.82416 7.87498 9.74999 7.875H2.24999C2.17578 7.87506 2.10322 7.85309 2.0415 7.81189C1.97977 7.77069 1.93166 7.7121 1.90326 7.64354C1.87485 7.57499 1.86742 7.49954 1.88192 7.42676C1.89641 7.35398 1.93217 7.28713 1.98468 7.23468L5.73468 3.48468C5.76951 3.44982 5.81086 3.42216 5.85639 3.40329C5.90191 3.38442 5.95071 3.3747 5.99999 3.3747C6.04927 3.3747 6.09807 3.38442 6.14359 3.40329C6.18912 3.42216 6.23048 3.44982 6.2653 3.48468L10.0153 7.23468C10.0677 7.28716 10.1034 7.354 10.1179 7.42676C10.1323 7.49952 10.1248 7.57492 10.0964 7.64344Z" fill="#9295A4"/>
</svg>
