<svg width="16" height="16" viewBox="0 0 16 16" fill="none" xmlns="http://www.w3.org/2000/svg">
<path d="M3.50825 2.0371L3.50824 2.03711L3.50875 2.03767L13.5082 13.0371C13.5083 13.0372 13.5084 13.0373 13.5085 13.0374C13.6284 13.1727 13.6902 13.3497 13.6805 13.5303C13.6707 13.7109 13.5902 13.8805 13.4563 14.0021C13.3224 14.1238 13.146 14.1878 12.9653 14.1802C12.7846 14.1727 12.6143 14.0943 12.491 13.9621C12.4909 13.962 12.4908 13.9619 12.4907 13.9618L10.4419 11.708L10.4233 11.6875H10.3956H8.75H8.6875V11.75V15C8.6875 15.1823 8.61507 15.3572 8.48614 15.4861C8.3572 15.6151 8.18234 15.6875 8 15.6875C7.81766 15.6875 7.6428 15.6151 7.51386 15.4861C7.38493 15.3572 7.3125 15.1823 7.3125 15V11.75V11.6875H7.25H2.5C2.31766 11.6875 2.1428 11.6151 2.01386 11.4861C1.88493 11.3572 1.8125 11.1823 1.8125 11C1.8125 10.8177 1.88493 10.6428 2.01386 10.5139C2.1428 10.3849 2.31766 10.3125 2.5 10.3125H2.87063H2.92304L2.93217 10.2609L3.93654 4.58527L3.9419 4.55501L3.92121 4.53229L2.49121 2.96229L2.49121 2.96229L2.49075 2.96179C2.42876 2.8952 2.3806 2.81697 2.34907 2.73163C2.31753 2.64629 2.30325 2.55555 2.30705 2.46465C2.31085 2.37375 2.33265 2.28451 2.37119 2.2021C2.40973 2.11969 2.46425 2.04575 2.53158 1.98456C2.5989 1.92337 2.67771 1.87616 2.76342 1.84565C2.84913 1.81514 2.94004 1.80195 3.03089 1.80684C3.12173 1.81173 3.2107 1.8346 3.29265 1.87412C3.37459 1.91365 3.44787 1.96905 3.50825 2.0371ZM4.3322 10.2391L4.31925 10.3125H4.39375H9.03187H9.17315L9.07812 10.208L5.19437 5.93546L5.10872 5.84123L5.08658 5.96663L4.3322 10.2391ZM11.8938 3.1875H11.8193L11.8322 3.26087L12.7903 8.68837L12.7903 8.6884C12.8061 8.77733 12.8042 8.8685 12.7847 8.95668C12.7652 9.04487 12.7285 9.12835 12.6767 9.20236C12.625 9.27637 12.5591 9.33945 12.483 9.388C12.4069 9.43652 12.322 9.46958 12.2331 9.48529C12.1932 9.4921 12.1529 9.49555 12.1125 9.49563C11.951 9.49533 11.7947 9.43816 11.6711 9.33415C11.5475 9.23012 11.4644 9.08587 11.4366 8.92672L11.4365 8.92663L10.4322 3.23913L10.4231 3.1875H10.3706H6.37875C6.19641 3.1875 6.02155 3.11507 5.89261 2.98614C5.76368 2.85721 5.69125 2.68234 5.69125 2.5C5.69125 2.31767 5.76368 2.1428 5.89261 2.01387C6.02155 1.88493 6.19641 1.8125 6.37875 1.8125H12C12.1823 1.8125 12.3572 1.88493 12.4861 2.01387C12.6151 2.1428 12.6875 2.31767 12.6875 2.5C12.6875 2.68234 12.6151 2.85721 12.4861 2.98614C12.3572 3.11507 12.1823 3.1875 12 3.1875H11.8938Z" fill="#11315B" stroke="#11315B" stroke-width="0.125"/>
</svg>
